<?xml version="1.0" encoding="utf-8"?>
<!-- Generator: Adobe Illustrator 23.0.1, SVG Export Plug-In . SVG Version: 6.00 Build 0)  -->
<svg version="1.1" id="align_center" xmlns="http://www.w3.org/2000/svg" xmlns:xlink="http://www.w3.org/1999/xlink" x="0px"
	 y="0px" viewBox="0 0 24 24" style="enable-background:new 0 0 24 24;" xml:space="preserve">
<path id="Path" d="M7,15.9999847v0.0000019c0,0.5522842,0.4477148,0.9999981,0.999999,0.9999981h8.0000029
	C16.5522861,16.9999847,17,16.5522709,17,15.9999866v-0.0000019c0-0.5522842-0.4477139-0.999999-0.9999981-0.999999H7.999999
	C7.4477148,14.9999857,7,15.4477005,7,15.9999847z M3.999999,20.9999847h16.0000038
	C20.5522861,20.9999847,21,20.5522709,21,19.9999866v-0.0000019c0-0.5522842-0.4477139-1-0.9999981-1H3.999999
	c-0.5522842,0-0.999999,0.4477158-0.999999,1v0.0000019C3,20.5522709,3.4477148,20.9999847,3.999999,20.9999847z
	 M3.999999,12.9999857h16.0000038C20.5522861,12.9999857,21,12.5522709,21,11.9999866v-0.0000019
	c0-0.5522842-0.4477139-0.999999-0.9999981-0.999999H3.999999C3.4477148,10.9999857,3,11.4477005,3,11.9999847v0.0000019
	C3,12.5522709,3.4477148,12.9999857,3.999999,12.9999857z M7,7.9999843v0.0000019
	c0,0.5522847,0.4477148,0.9999995,0.999999,0.9999995h8.0000029C16.5522861,8.9999857,17,8.5522709,17,7.9999862V7.9999843
	c0-0.5522842-0.4477139-0.999999-0.9999981-0.999999H7.999999C7.4477148,6.9999852,7,7.4477,7,7.9999843z M3,3.9999843v0.0000021
	c0,0.552284,0.4477148,0.9999988,0.999999,0.9999988h16.0000038C20.5522861,4.9999852,21,4.5522704,21,3.9999864V3.9999843
	c0-0.552284-0.4477139-0.9999988-0.9999981-0.9999988H3.999999C3.4477148,2.9999855,3,3.4477003,3,3.9999843z"/>
</svg>
