<?xml version="1.0" encoding="UTF-8" standalone="no"?> <svg id="Layer_1" data-name="Layer 1" xmlns="http://www.w3.org/2000/svg" viewBox="0 0 512 512"><title>Emoji</title><path d="M328.63,317a120.89,120.89,0,0,1-145.26,0A21.34,21.34,0,0,0,158,351.3a163.56,163.56,0,0,0,196.08,0A21.34,21.34,0,0,0,328.63,317Z"/><path d="M472.22,164.65A235.29,235.29,0,0,0,347.35,39.78a235.37,235.37,0,0,0-182.7,0A235.29,235.29,0,0,0,39.78,164.65a235.37,235.37,0,0,0,0,182.7A235.29,235.29,0,0,0,164.65,472.22a235.37,235.37,0,0,0,182.7,0A235.29,235.29,0,0,0,472.22,347.35a235.37,235.37,0,0,0,0-182.7Zm-39.3,166.08A192.7,192.7,0,1,1,448,256,191.39,191.39,0,0,1,432.92,330.73Z"/><path d="M192,245.33h.11a32,32,0,0,0,0-64H192a32,32,0,0,0,0,64Z"/><circle cx="319.89" cy="213.33" r="32"/></svg>