<svg version="1.0" id="Layer_1" xmlns="http://www.w3.org/2000/svg" xmlns:xlink="http://www.w3.org/1999/xlink" x="0px" y="0px" width="100px" height="100px" viewBox="0 0 100 100" enable-background="new 0 0 100 100" xml:space="preserve">
<path fill="#304FFE" d="M80,43.335v-6.667H69.955l5.847-14.117l-6.159-2.553c0,0-3.021,7.292-6.903,16.67H48.31l5.845-14.117
	l-6.157-2.549l-6.905,16.666H26.668v6.667H38.33l-5.523,13.333H20v6.667h10.047l-5.848,14.113l6.158,2.554l6.9-16.667h14.435
	c-3.358,8.112-5.847,14.113-5.847,14.113l6.159,2.554l6.903-16.667h14.425v-6.667H61.67l5.523-13.333H80z M54.453,56.668H40.021
	l5.525-13.333h14.43C58.146,47.749,56.248,52.339,54.453,56.668z" id="id_101"></path>
</svg>