<?xml version="1.0" encoding="UTF-8"?>
<svg version="1.1" xmlns="http://www.w3.org/2000/svg" width="600" height="600">
<path d="M0 0 C1.05493652 0.19335938 2.10987305 0.38671875 3.19677734 0.5859375 C48.98410506 9.24497394 91.81911168 28.6172146 128 58 C128.77827148 58.62382568 128.77827148 58.62382568 129.57226562 59.26025391 C137.78126836 65.88308487 145.33272552 73.13190005 152.8125 80.5625 C154.11960937 81.85571167 154.11960937 81.85571167 155.453125 83.17504883 C161.38999461 89.14072174 166.77328469 95.40739774 172 102 C172.88114603 103.08362973 173.76258026 104.16702531 174.64453125 105.25 C203.20497029 141.47801637 220.94735259 184.79175695 229 230 C229.16516113 230.87446777 229.33032227 231.74893555 229.50048828 232.64990234 C234.82629458 261.75733388 234.46580271 294.94947377 229 324 C228.75056641 325.42119141 228.75056641 325.42119141 228.49609375 326.87109375 C220.27748991 373.19966798 200.65968725 416.47814487 171 453 C170.58411621 453.51884766 170.16823242 454.03769531 169.73974609 454.57226562 C163.11691513 462.78126836 155.86809995 470.33272552 148.4375 477.8125 C147.57535889 478.68390625 146.71321777 479.5553125 145.82495117 480.453125 C139.85927826 486.38999461 133.59260226 491.77328469 127 497 C125.91637027 497.88114603 124.83297469 498.76258026 123.75 499.64453125 C87.52198363 528.20497029 44.20824305 545.94735259 -1 554 C-1.87446777 554.16516113 -2.74893555 554.33032227 -3.64990234 554.50048828 C-32.75733388 559.82629458 -65.94947377 559.46580271 -95 554 C-96.42119141 553.75056641 -96.42119141 553.75056641 -97.87109375 553.49609375 C-144.19966798 545.27748991 -187.47814487 525.65968725 -224 496 C-224.51884766 495.58411621 -225.03769531 495.16823242 -225.57226562 494.73974609 C-233.78126836 488.11691513 -241.33272552 480.86809995 -248.8125 473.4375 C-249.68390625 472.57535889 -250.5553125 471.71321777 -251.453125 470.82495117 C-257.38999461 464.85927826 -262.77328469 458.59260226 -268 452 C-268.88114603 450.91637027 -269.76258026 449.83297469 -270.64453125 448.75 C-298.90568756 412.90161434 -316.88755982 369.75172398 -325 325 C-325.16516113 324.10877441 -325.33032227 323.21754883 -325.50048828 322.29931641 C-330.72975905 292.55141722 -330.56921718 258.6772687 -325 229 C-324.80664062 227.94506348 -324.61328125 226.89012695 -324.4140625 225.80322266 C-315.75502606 180.01589494 -296.3827854 137.18088832 -267 101 C-266.58411621 100.48115234 -266.16823242 99.96230469 -265.73974609 99.42773438 C-259.11691513 91.21873164 -251.86809995 83.66727448 -244.4375 76.1875 C-243.57535889 75.31609375 -242.71321777 74.4446875 -241.82495117 73.546875 C-235.85927826 67.61000539 -229.59260226 62.22671531 -223 57 C-221.91637027 56.11885397 -220.83297469 55.23741974 -219.75 54.35546875 C-183.90161434 26.09431244 -140.75172398 8.11244018 -96 0 C-95.10877441 -0.16516113 -94.21754883 -0.33032227 -93.29931641 -0.50048828 C-63.55141722 -5.72975905 -29.6772687 -5.56921718 0 0 Z " fill="#000000" transform="translate(348,23)"/>
<path d="M0 0 C23.72742334 19.70029186 38.50657964 45.48228702 43 76 C44.96618848 110.14316087 36.78690066 140.99389731 14 167 C-4.72971205 187.93320758 -29.59866069 200.04952031 -57 205 C-56.08863281 205.09796875 -55.17726563 205.1959375 -54.23828125 205.296875 C-49.81633408 205.8072689 -45.40804304 206.38188499 -41 207 C-40.22398437 207.10763672 -39.44796875 207.21527344 -38.6484375 207.32617188 C1.96055924 213.25669368 39.42167261 232.88765385 69 261 C69.55268555 261.52013672 70.10537109 262.04027344 70.67480469 262.57617188 C95.18989339 285.78712636 121.019822 321.51226738 126 356 C125.57647856 362.26562601 118.39337039 366.98023464 114 371 C110.42011395 374.11696975 106.73583141 377.0727458 103 380 C102.03835938 380.77859375 101.07671875 381.5571875 100.0859375 382.359375 C63.88287092 411.1385216 20.3028106 428.9305079 -25 437 C-25.87446777 437.16516113 -26.74893555 437.33032227 -27.64990234 437.50048828 C-56.75733388 442.82629458 -89.94947377 442.46580271 -119 437 C-119.94746094 436.83371094 -120.89492187 436.66742187 -121.87109375 436.49609375 C-174.11073339 427.22887778 -220.92407418 403.41813549 -260.44775391 368.34716797 C-261.8400692 367.13880122 -263.28264693 365.98892925 -264.73046875 364.84765625 C-269.80722352 360.5747938 -269.80722352 360.5747938 -270.27734375 356.734375 C-269.86450975 353.64049263 -269.01819042 350.95515198 -268 348 C-267.77296387 347.30938477 -267.54592773 346.61876953 -267.31201172 345.90722656 C-263.51247972 334.43722005 -258.73547629 323.62300286 -253 313 C-252.67918457 312.39849121 -252.35836914 311.79698242 -252.02783203 311.17724609 C-226.20639269 263.08825775 -181.09011768 228.52135503 -129.32226562 212.53051758 C-114.7799168 208.22252192 -100.05411907 206.44616885 -85 205 C-85.98097656 204.84144531 -86.96195313 204.68289063 -87.97265625 204.51953125 C-118.88384058 199.28971602 -146.57216956 183.91745716 -165.1875 158.25 C-183.16775902 132.51962934 -190.61763439 102.77928631 -186.49609375 71.45703125 C-185.83891968 67.89327013 -185.00931853 64.47927687 -184 61 C-183.52433594 59.2365625 -183.52433594 59.2365625 -183.0390625 57.4375 C-173.85717529 26.70096978 -152.55535581 2.32390846 -124.5625 -12.8125 C-116.94651837 -16.78501247 -109.30159743 -19.72620049 -101 -22 C-99.33904297 -22.47759766 -99.33904297 -22.47759766 -97.64453125 -22.96484375 C-63.71958359 -31.28316425 -26.94464554 -21.51550054 0 0 Z " fill="#FEFEFE" transform="translate(372,140)"/>
</svg>
