<?xml version="1.0" encoding="UTF-8" standalone="no"?> <svg width="64" height="64" viewBox="0 0 64 64" fill="none" xmlns="http://www.w3.org/2000/svg">
<path d="M55.11 9.79H51V4C51 3.46957 50.7893 2.96086 50.4142 2.58579C50.0391 2.21071 49.5304 2 49 2C48.4696 2 47.9609 2.21071 47.5858 2.58579C47.2107 2.96086 47 3.46957 47 4V9.79H17V4C17 3.46957 16.7893 2.96086 16.4142 2.58579C16.0391 2.21071 15.5304 2 15 2C14.4696 2 13.9609 2.21071 13.5858 2.58579C13.2107 2.96086 13 3.46957 13 4V9.79H8.89C7.06347 9.79265 5.31251 10.5194 4.02096 11.811C2.7294 13.1025 2.00265 14.8535 2 16.68V55.11C2.00265 56.9365 2.7294 58.6875 4.02096 59.979C5.31251 61.2706 7.06347 61.9974 8.89 62H55.11C56.9365 61.9974 58.6875 61.2706 59.979 59.979C61.2706 58.6875 61.9974 56.9365 62 55.11V16.68C61.9974 14.8535 61.2706 13.1025 59.979 11.811C58.6875 10.5194 56.9365 9.79265 55.11 9.79V9.79ZM32 53.11C31.6057 53.1083 31.2206 52.9901 30.8933 52.7703C30.5659 52.5504 30.3108 52.2387 30.1602 51.8742C30.0095 51.5098 29.9699 51.109 30.0464 50.7221C30.1228 50.3353 30.312 49.9797 30.59 49.7C30.9647 49.3275 31.4716 49.1184 32 49.1184C32.5284 49.1184 33.0353 49.3275 33.41 49.7C33.688 49.9797 33.8771 50.3353 33.9536 50.7221C34.0301 51.109 33.9905 51.5098 33.8398 51.8742C33.6892 52.2387 33.4341 52.5504 33.1067 52.7703C32.7794 52.9901 32.3943 53.1083 32 53.11ZM34 44.05C34 44.5804 33.7893 45.0891 33.4142 45.4642C33.0391 45.8393 32.5304 46.05 32 46.05C31.4696 46.05 30.9609 45.8393 30.5858 45.4642C30.2107 45.0891 30 44.5804 30 44.05V31.42C30 30.8896 30.2107 30.3809 30.5858 30.0058C30.9609 29.6307 31.4696 29.42 32 29.42C32.5304 29.42 33.0391 29.6307 33.4142 30.0058C33.7893 30.3809 34 30.8896 34 31.42V44.05ZM58 19.05H6V16.68C6.00264 15.9143 6.30796 15.1808 6.84937 14.6394C7.39078 14.098 8.12434 13.7926 8.89 13.79H55.11C55.8757 13.7926 56.6092 14.098 57.1506 14.6394C57.692 15.1808 57.9974 15.9143 58 16.68V19.05Z" fill="black"/>
</svg>
